<?xml version="1.0" encoding="UTF-8" standalone="no"?>
<svg xmlns="http://www.w3.org/2000/svg" width="400" height="400" viewBox="0 0 400 400" fill="none">
  <g>
    <path d="M149.5 319.5L110 140.5H139L165 269.5L191.5 140.5H224L250.5 269.5L277 140.5H305.5L266 319.5H232L206.5 196.5L181 319.5H149.5Z" fill="white"/>
    <path d="M363.5 266.5C378.5 249 386 240 386 226C386 217.5 381 210.5 371.5 210.5C362.5 210.5 356 217 356 226C356 236 363 243 373 243C380 243 385.5 240 389.5 234.5" stroke="white" stroke-width="10" stroke-linecap="round"/>
    <circle cx="318.5" cy="225.5" r="10.5" fill="#EA19FF"/>
    <circle cx="348.5" cy="225.5" r="10.5" fill="#9083FF"/>
    <circle cx="378.5" cy="225.5" r="10.5" fill="#3BE8FF"/>
  </g>
</svg>